<svg xmlns="http://www.w3.org/2000/svg" enable-background="new 0 0 64 64" viewBox="0 0 64 64" id="drum"><path d="M37.13,23.91l0.89-0.57l0.12-0.06l3.85-2.47c-2.44-0.57-5.16-0.99-8.07-1.23l-3.03,3.77
		C33.17,23.43,35.24,23.62,37.13,23.91z"></path><path d="M48.54 22.98l-.61.34-.11.05-3.71 2.12c3.76 1.22 5.8 2.66 6.1 3.48-.6 1.62-8.01 5.68-21.98 5.68-13.97 0-21.39-4.06-21.98-5.68.54-1.49 6.82-5.03 18.63-5.59l2.93-4.04C13.69 19.42 2.29 23.7 2.29 28.97c0 2.38 2.32 4.55 6.16 6.22.59.27 1.21.52 1.88.74 2.96 1.06 6.59 1.85 10.64 2.29.64.07 1.29.13 1.95.18 1.72.14 3.5.21 5.32.21 1.82 0 3.6-.07 5.31-.21.66-.05 1.31-.11 1.95-.18 4.05-.44 7.68-1.23 10.64-2.29.67-.23 1.29-.47 1.88-.73 3.77-1.64 6.06-3.76 6.16-6.06.01-.06.01-.11.01-.17C54.19 26.71 52.08 24.62 48.54 22.98zM8.38 54.44V36.76c-.19-.08-.36-.16-.54-.23-2.77-1.2-4.5-2.51-5.55-3.79v14.54C2.29 50.01 4.58 52.5 8.38 54.44zM10.24 55.3c.01.01.03.01.04.01C10.27 55.28 10.25 55.27 10.24 55.3zM20.96 39.69c-.05 0-.1 0-.15-.01-3.87-.42-7.48-1.17-10.48-2.2v17.86c2.95 1.21 6.58 2.12 10.63 2.62V39.69zM28.24 40.07c-1.82 0-3.61-.07-5.32-.21v18.21c0 .03 0 .07-.01.1 1.72.16 3.5.23 5.33.23 1.82 0 3.6-.08 5.32-.23-.01-.03-.01-.07-.01-.1v-18.2C31.85 40.01 30.06 40.07 28.24 40.07zM46.14 37.48c-2.98 1.02-6.6 1.78-10.48 2.2-.05.01-.1.01-.15.01v18.27c4.04-.5 7.68-1.41 10.63-2.62V37.48zM48.6 36.54c-.17.08-.33.16-.51.23v17.67c3.8-1.94 6.08-4.43 6.08-7.16V32.74C53.13 34 51.41 35.33 48.6 36.54z"></path><path d="M48.6 55.72c-.61.31-1.28.61-1.99.88-3.07 1.24-6.87 2.17-10.95 2.68-.65.08-1.32.15-2 .21-1.73.16-3.56.24-5.42.24-1.86 0-3.69-.08-5.44-.24-.66-.06-1.34-.12-1.99-.2-4.09-.5-7.88-1.43-10.98-2.69-.72-.28-1.39-.58-2-.9-2.78-1.37-4.5-3.14-5.54-4.58v1.95C2.29 59.1 13.91 64 28.24 64c14.33 0 25.94-4.9 25.94-10.94v-1.94C53.13 52.56 51.4 54.34 48.6 55.72zM24.52 25.99l-.13.01c-.62.06-1.13.46-1.36 1.05-.2.51-.11 1.12.22 1.55.32.42.8.65 1.31.65.06 0 .11 0 .17-.01.45-.05.85-.27 1.13-.63.28-.36.39-.83.3-1.29l-.02-.13L45.76 2.88c.3-.38.44-.84.38-1.32-.06-.48-.3-.9-.68-1.19C45.14.13 44.77 0 44.38 0c-.06 0-.12 0-.18.01-.5.05-.96.31-1.25.72L24.64 25.88 24.52 25.99zM61.45 12.05c-.32-.53-.88-.85-1.52-.85-.33 0-.66.1-.95.28l-15.52 9.92-.08.05-4.62 2.96-.08.05-6.03 3.85-.13-.04c-.16-.05-.32-.07-.48-.07-.46 0-.89.19-1.21.54-.37.4-.51 1.01-.35 1.53.21.72.85 1.2 1.59 1.2.31 0 .6-.08.84-.23.39-.24.66-.64.75-1.08l.02-.13 13.59-7.76.08-.04 13.48-7.7c.41-.23.71-.62.84-1.09C61.77 12.94 61.7 12.46 61.45 12.05z"></path></svg>